<?xml version="1.0" standalone="no"?>
<!DOCTYPE svg PUBLIC "-//W3C//DTD SVG 20010904//EN"
 "http://www.w3.org/TR/2001/REC-SVG-20010904/DTD/svg10.dtd">
<svg version="1.0" xmlns="http://www.w3.org/2000/svg"
 width="900.000000pt" height="900.000000pt" viewBox="0 0 900.000000 900.000000"
 preserveAspectRatio="xMidYMid meet">
<metadata>
Created by potrace 1.14, written by Peter Selinger 2001-2017
</metadata>
<g transform="translate(0.000000,900.000000) scale(0.100000,-0.100000)"
fill="#000000" stroke="none">
<path d="M2434 7661 c-2 -2 -19 -5 -36 -7 -43 -3 -68 -9 -150 -33 -38 -11 -68
-17 -68 -13 0 3 -5 1 -12 -6 -7 -7 -17 -12 -24 -12 -21 0 -186 -83 -259 -131
-99 -64 -199 -155 -271 -244 -50 -61 -102 -138 -100 -146 0 -4 -6 -15 -15 -25
-22 -26 -96 -187 -102 -220 -1 -11 -6 -24 -9 -30 -4 -6 -9 -21 -12 -35 -2 -13
-13 -60 -23 -104 -17 -76 -17 -192 -16 -2145 1 -1771 3 -2165 13 -2165 1 0 3
-7 5 -16 1 -9 10 -42 20 -74 9 -32 14 -64 11 -72 -3 -8 -1 -11 4 -8 6 3 11 1
11 -4 3 -21 4 -26 12 -38 5 -7 5 -13 2 -13 -3 0 8 -26 25 -57 17 -31 29 -65
27 -74 -3 -11 0 -16 8 -13 14 6 28 -23 18 -38 -3 -6 -2 -8 4 -5 5 3 18 -8 28
-26 10 -18 27 -42 37 -54 11 -12 18 -25 15 -30 -3 -5 -1 -15 5 -23 8 -12 9
-11 4 5 -4 15 0 12 18 -9 14 -17 22 -34 19 -39 -3 -6 -1 -7 4 -4 12 8 36 -17
26 -26 -3 -4 -2 -7 4 -7 15 0 88 -70 85 -82 -1 -5 2 -7 8 -3 5 3 13 -1 16 -9
3 -9 11 -13 17 -9 6 4 8 0 4 -10 -4 -12 -2 -14 10 -10 13 5 15 2 10 -12 -6
-15 -5 -16 8 -5 15 13 21 3 15 -25 -1 -5 4 -5 11 2 9 9 15 8 28 -4 9 -9 16
-20 16 -24 0 -4 4 -11 9 -16 5 -5 6 -3 2 5 -9 15 -1 15 25 1 11 -5 16 -15 13
-21 -4 -6 -3 -9 2 -6 5 3 20 1 34 -4 18 -7 21 -11 11 -17 -10 -6 -9 -10 4 -14
9 -4 13 -3 10 3 -11 17 13 11 67 -17 50 -26 68 -33 96 -35 6 -1 12 -5 12 -10
0 -5 5 -6 10 -3 6 3 10 2 10 -4 0 -6 8 -7 17 -4 13 5 15 2 10 -12 -6 -14 -5
-16 7 -6 7 6 20 9 27 7 8 -2 27 -7 42 -10 17 -4 25 -11 21 -18 -5 -7 -3 -8 7
-3 18 12 103 6 108 -7 2 -6 7 -5 12 3 5 8 9 9 9 4 0 -7 34 -10 90 -9 60 1 88
-2 83 -9 -4 -6 -1 -7 7 -2 22 14 122 16 114 3 -5 -7 -2 -8 6 -3 20 12 122 16
115 4 -4 -5 -11 -6 -17 -3 -7 4 -8 2 -4 -5 6 -9 11 -9 23 0 19 16 126 22 117
7 -5 -7 -2 -8 6 -3 20 12 122 16 115 4 -4 -5 -11 -6 -17 -3 -7 4 -8 2 -4 -5 6
-9 11 -9 23 0 19 16 126 22 117 7 -5 -7 -2 -8 6 -3 20 12 122 16 115 4 -4 -5
-11 -6 -17 -3 -7 4 -8 2 -4 -5 6 -9 11 -9 23 0 19 16 126 22 117 7 -5 -7 -2
-8 6 -3 20 12 122 16 115 4 -4 -5 -11 -6 -17 -3 -7 4 -8 2 -4 -5 6 -9 11 -9
23 0 19 16 126 22 117 7 -5 -7 -2 -8 6 -3 20 12 122 16 115 4 -4 -5 -11 -6
-17 -3 -7 4 -8 2 -4 -5 6 -9 11 -9 23 0 19 16 126 22 117 7 -5 -7 -2 -8 6 -3
20 12 122 16 115 4 -4 -5 -11 -6 -17 -3 -7 4 -8 2 -4 -5 6 -9 11 -9 23 0 19
16 126 22 117 7 -5 -7 -2 -8 6 -3 20 12 122 16 115 4 -4 -5 -11 -6 -17 -3 -7
4 -8 2 -4 -5 6 -9 11 -9 23 0 19 16 126 22 117 7 -5 -7 -2 -8 6 -3 20 12 122
16 115 4 -4 -5 -11 -6 -17 -3 -7 4 -8 2 -4 -5 6 -9 11 -9 23 0 19 16 126 22
117 7 -5 -7 -2 -8 6 -3 20 12 122 16 115 4 -4 -5 -11 -6 -17 -3 -7 4 -8 2 -4
-5 6 -9 11 -9 23 0 19 16 126 22 117 7 -5 -7 -2 -8 6 -3 20 12 122 16 115 4
-4 -5 -11 -6 -17 -3 -7 5 -8 2 -4 -5 6 -10 12 -9 24 1 19 16 59 17 81 4 8 -5
12 -5 8 0 -3 5 21 10 54 10 32 1 57 -2 54 -6 -3 -5 -1 -12 5 -15 6 -4 9 -1 8
5 -2 8 16 14 54 16 50 2 56 1 52 -14 -5 -14 -4 -14 4 -3 11 16 127 26 117 11
-3 -5 -1 -12 5 -15 6 -4 9 -1 8 5 -2 8 16 14 54 16 50 2 56 1 52 -14 -5 -14
-4 -14 4 -3 11 16 127 26 117 11 -3 -5 -1 -12 5 -15 6 -4 9 -1 8 5 -2 8 16 14
54 16 50 2 56 1 52 -14 -5 -14 -4 -14 4 -3 11 16 127 26 117 11 -3 -5 -1 -12
5 -15 6 -4 9 -1 8 5 -2 8 16 14 54 16 50 2 56 1 52 -14 -5 -14 -4 -14 4 -3 11
16 127 26 117 11 -3 -5 -1 -12 5 -15 6 -4 9 -1 8 5 -4 18 31 21 41 3 7 -13 9
-13 13 -1 5 11 27 14 94 13 49 0 95 -4 103 -9 10 -6 12 -5 7 2 -5 8 1 12 14
12 17 0 21 -4 16 -17 -5 -16 -4 -16 6 -3 7 8 24 16 38 18 14 2 34 4 45 6 11 2
26 -1 33 -7 7 -5 15 -7 19 -3 3 3 1 6 -6 6 -7 0 -10 3 -8 8 3 4 25 7 50 7 25
0 44 2 41 6 -2 4 15 10 39 13 23 4 55 13 71 21 16 8 37 15 47 15 10 0 21 5 24
10 3 6 15 10 26 10 10 0 19 5 19 11 0 8 6 7 17 -2 10 -9 14 -9 10 -2 -5 8 4
18 23 28 16 8 30 12 30 8 0 -5 4 -3 8 3 4 6 21 18 39 27 17 9 37 22 45 29 24
23 75 48 83 40 5 -4 5 -2 2 4 -4 6 12 26 35 45 22 19 53 45 67 59 14 14 29 24
33 22 4 -1 7 1 6 5 -4 12 35 53 44 47 4 -3 6 1 3 8 -2 7 13 33 35 57 22 25 38
47 35 49 -2 2 7 14 20 27 14 12 22 25 18 28 -3 4 -1 7 6 7 7 0 10 4 7 9 -4 5
-3 11 1 13 5 1 16 20 26 41 9 21 22 35 27 32 5 -3 7 0 5 7 -3 8 6 43 21 78 14
36 28 73 30 84 2 11 7 22 12 25 4 3 8 14 9 24 2 51 4 58 11 54 4 -3 8 11 9 31
3 78 6 103 16 109 5 3 4 9 -4 13 -8 6 -10 13 -3 22 10 14 11 3978 1 4083 -8
84 -16 128 -33 188 -8 29 -16 57 -17 64 -2 7 -6 16 -10 19 -4 4 -7 14 -7 21 0
8 -16 49 -37 91 -20 42 -35 80 -35 85 1 4 -3 7 -8 7 -6 0 -10 5 -10 10 0 14
-75 125 -125 185 -116 139 -280 263 -444 335 -41 18 -79 33 -85 35 -6 1 -18 5
-26 8 -51 20 -189 49 -239 51 -32 0 -57 3 -56 6 4 7 -4084 7 -4091 1z"/>
<path d="M7353 1705 c0 -8 4 -12 9 -9 5 3 6 10 3 15 -9 13 -12 11 -12 -6z"/>
<path d="M2016 1438 c3 -5 10 -6 15 -3 13 9 11 12 -6 12 -8 0 -12 -4 -9 -9z"/>
<path d="M6339 1313 c-13 -16 -12 -17 3 -5 9 8 23 10 29 6 8 -4 9 -3 5 4 -10
17 -21 15 -37 -5z"/>
<path d="M6556 1318 c3 -5 10 -6 15 -3 13 9 11 12 -6 12 -8 0 -12 -4 -9 -9z"/>
</g>
</svg>
